<svg width="28" height="28" viewBox="0 0 28 28" fill="none" xmlns="http://www.w3.org/2000/svg">
<g clip-path="url(#clip0_196_1010)">
<path d="M5.83333 4.66669H10.5L14 8.16669H22.1667C22.7855 8.16669 23.379 8.41252 23.8166 8.8501C24.2542 9.28769 24.5 9.88118 24.5 10.5V19.8334C24.5 20.4522 24.2542 21.0457 23.8166 21.4833C23.379 21.9209 22.7855 22.1667 22.1667 22.1667H5.83333C5.21449 22.1667 4.621 21.9209 4.18342 21.4833C3.74583 21.0457 3.5 20.4522 3.5 19.8334V7.00002C3.5 6.38118 3.74583 5.78769 4.18342 5.3501C4.621 4.91252 5.21449 4.66669 5.83333 4.66669" stroke="black" stroke-width="2.25" stroke-linecap="round" stroke-linejoin="round"/>
</g>
<defs>
<clipPath id="clip0_196_1010">
<rect width="28" height="28" fill="white"/>
</clipPath>
</defs>
</svg>
