<svg width="36" height="36" viewBox="0 0 36 36" fill="none" xmlns="http://www.w3.org/2000/svg">
<g clip-path="url(#clip0_196_1010)">
<path d="M7.5 6H13.5L18 10.5H28.5C29.2956 10.5 30.0587 10.8161 30.6213 11.3787C31.1839 11.9413 31.5 12.7044 31.5 13.5V25.5C31.5 26.2956 31.1839 27.0587 30.6213 27.6213C30.0587 28.1839 29.2956 28.5 28.5 28.5H7.5C6.70435 28.5 5.94129 28.1839 5.37868 27.6213C4.81607 27.0587 4.5 26.2956 4.5 25.5V9C4.5 8.20435 4.81607 7.44129 5.37868 6.87868C5.94129 6.31607 6.70435 6 7.5 6" stroke="black" stroke-width="2.25" stroke-linecap="round" stroke-linejoin="round"/>
</g>
<defs>
<clipPath id="clip0_196_1010">
<rect width="36" height="36" fill="white"/>
</clipPath>
</defs>
</svg>
