<svg width="28" height="28" viewBox="0 0 28 28" fill="none" xmlns="http://www.w3.org/2000/svg">
<g clip-path="url(#clip0_196_1005)">
<path d="M6.99996 4.66669H18.6666L23.3333 9.33335V21C23.3333 21.6189 23.0875 22.2124 22.6499 22.6499C22.2123 23.0875 21.6188 23.3334 21 23.3334H6.99996C6.38112 23.3334 5.78763 23.0875 5.35004 22.6499C4.91246 22.2124 4.66663 21.6189 4.66663 21V7.00002C4.66663 6.38118 4.91246 5.78769 5.35004 5.3501C5.78763 4.91252 6.38112 4.66669 6.99996 4.66669" stroke="black" stroke-width="2.25" stroke-linecap="round" stroke-linejoin="round"/>
<path d="M14 18.6667C15.2886 18.6667 16.3333 17.622 16.3333 16.3333C16.3333 15.0447 15.2886 14 14 14C12.7113 14 11.6666 15.0447 11.6666 16.3333C11.6666 17.622 12.7113 18.6667 14 18.6667Z" stroke="black" stroke-width="2.25" stroke-linecap="round" stroke-linejoin="round"/>
<path d="M16.3334 4.66669V9.33335H9.33337V4.66669" stroke="black" stroke-width="2.25" stroke-linecap="round" stroke-linejoin="round"/>
</g>
<defs>
<clipPath id="clip0_196_1005">
<rect width="28" height="28" fill="white"/>
</clipPath>
</defs>
</svg>
